<svg version="1.1" xmlns="http://www.w3.org/2000/svg" xmlns:xlink="http://www.w3.org/1999/xlink" width="1000px" height="250px" viewBox="0 0 1000 250"><style>text{font-family:Times new roman;font-size: 12px;}tspan{font-family:Times new roman;font-size: 12px;}</style><rect width="1000" height="250" fill="#fff" x="0" y="0"></rect><g transform="translate(45.07862091064453,20)"><g transform="translate(0,0)"><rect x="0" y="0" height="92.8196792602539" width="708.0921783447266" stroke="#000" stroke-width="2" fill="none"></rect><g></g><g><g><g><rect x="0" y="0" height="92.8196792602539" width="32.18600810657848" fill="rgb(255, 233, 233)"></rect><text font-size="10" x="1" y="10"></text><path fill="rgb(248, 247, 251)" d="M32.18600810657848,0L32.18600810657848,92.8196792602539L0,92.8196792602539Z"></path><text text-anchor="end" x="31.186008106578477" y="91.8196792602539" font-size="10"></text></g><g><rect x="32.18600810657848" y="0" height="92.8196792602539" width="32.18600810657848" fill="rgb(255, 226, 226)"></rect><text font-size="10" x="33.18600810657848" y="10"></text><path fill="rgb(251, 250, 252)" d="M64.37201621315695,0L64.37201621315695,92.8196792602539L32.18600810657848,92.8196792602539Z"></path><text text-anchor="end" x="63.372016213156954" y="91.8196792602539" font-size="10">*</text></g><g><rect x="64.37201621315695" y="0" height="92.8196792602539" width="32.18600810657848" fill="rgb(253, 253, 255)"></rect><text font-size="10" x="65.37201621315695" y="10"></text><path fill="rgb(178, 177, 213)" d="M96.55802431973544,0L96.55802431973544,92.8196792602539L64.37201621315695,92.8196792602539Z"></path><text text-anchor="end" x="95.55802431973544" y="91.8196792602539" font-size="10"></text></g><g><rect x="96.55802431973544" y="0" height="92.8196792602539" width="32.18600810657848" fill="rgb(243, 243, 255)"></rect><text font-size="10" x="97.55802431973544" y="10"></text><path fill="rgb(232, 230, 242)" d="M128.7440324263139,0L128.7440324263139,92.8196792602539L96.55802431973544,92.8196792602539Z"></path><text text-anchor="end" x="127.74403242631391" y="91.8196792602539" font-size="10"></text></g><g><rect x="128.7440324263139" y="0" height="92.8196792602539" width="32.18600810657848" fill="rgb(220, 220, 255)"></rect><text font-size="10" x="129.7440324263139" y="10"></text><path fill="rgb(252, 251, 253)" d="M160.93004053289238,0L160.93004053289238,92.8196792602539L128.7440324263139,92.8196792602539Z"></path><text text-anchor="end" x="159.93004053289238" y="91.8196792602539" font-size="10">*</text></g><g><rect x="160.93004053289238" y="0" height="92.8196792602539" width="32.18600810657848" fill="rgb(255, 207, 207)"></rect><text font-size="10" x="161.93004053289238" y="10"></text><path fill="rgb(252, 251, 253)" d="M193.11604863947085,0L193.11604863947085,92.8196792602539L160.93004053289238,92.8196792602539Z"></path><text text-anchor="end" x="192.11604863947085" y="91.8196792602539" font-size="10">*</text></g><g><rect x="193.11604863947085" y="0" height="92.8196792602539" width="32.18600810657848" fill="rgb(255, 246, 246)"></rect><text font-size="10" x="194.11604863947085" y="10"></text><path fill="rgb(221, 221, 236)" d="M225.30205674604932,0L225.30205674604932,92.8196792602539L193.11604863947085,92.8196792602539Z"></path><text text-anchor="end" x="224.30205674604932" y="91.8196792602539" font-size="10"></text></g><g><rect x="225.30205674604932" y="0" height="92.8196792602539" width="32.18600810657848" fill="rgb(255, 252, 252)"></rect><text font-size="10" x="226.30205674604932" y="10"></text><path fill="rgb(181, 180, 215)" d="M257.4880648526278,0L257.4880648526278,92.8196792602539L225.30205674604932,92.8196792602539Z"></path><text text-anchor="end" x="256.4880648526278" y="91.8196792602539" font-size="10"></text></g><g><rect x="257.4880648526278" y="0" height="92.8196792602539" width="32.18600810657848" fill="rgb(254, 254, 255)"></rect><text font-size="10" x="258.4880648526278" y="10"></text><path fill="rgb(164, 161, 204)" d="M289.6740729592063,0L289.6740729592063,92.8196792602539L257.4880648526278,92.8196792602539Z"></path><text text-anchor="end" x="288.6740729592063" y="91.8196792602539" font-size="10"></text></g><g><rect x="289.6740729592063" y="0" height="92.8196792602539" width="32.18600810657848" fill="rgb(242, 242, 255)"></rect><text font-size="10" x="290.6740729592063" y="10"></text><path fill="rgb(236, 235, 244)" d="M321.86008106578475,0L321.86008106578475,92.8196792602539L289.6740729592063,92.8196792602539Z"></path><text text-anchor="end" x="320.86008106578475" y="91.8196792602539" font-size="10"></text></g><g><rect x="321.86008106578475" y="0" height="92.8196792602539" width="32.18600810657848" fill="rgb(225, 225, 255)"></rect><text font-size="10" x="322.86008106578475" y="10"></text><path fill="rgb(251, 250, 253)" d="M354.0460891723632,0L354.0460891723632,92.8196792602539L321.86008106578475,92.8196792602539Z"></path><text text-anchor="end" x="353.0460891723632" y="91.8196792602539" font-size="10">*</text></g><g><rect x="354.0460891723632" y="0" height="92.8196792602539" width="32.18600810657848" fill="rgb(213, 213, 255)"></rect><text font-size="10" x="355.0460891723632" y="10"></text><path fill="rgb(252, 251, 253)" d="M386.2320972789417,0L386.2320972789417,92.8196792602539L354.0460891723632,92.8196792602539Z"></path><text text-anchor="end" x="385.2320972789417" y="91.8196792602539" font-size="10">*</text></g><g><rect x="386.2320972789417" y="0" height="92.8196792602539" width="32.18600810657848" fill="rgb(202, 202, 255)"></rect><text font-size="10" x="387.2320972789417" y="10"></text><path fill="rgb(252, 251, 253)" d="M418.41810538552016,0L418.41810538552016,92.8196792602539L386.2320972789417,92.8196792602539Z"></path><text text-anchor="end" x="417.41810538552016" y="91.8196792602539" font-size="10">*</text></g><g><rect x="418.41810538552016" y="0" height="92.8196792602539" width="32.18600810657848" fill="rgb(255, 205, 205)"></rect><text font-size="10" x="419.41810538552016" y="10"></text><path fill="rgb(252, 251, 253)" d="M450.60411349209863,0L450.60411349209863,92.8196792602539L418.41810538552016,92.8196792602539Z"></path><text text-anchor="end" x="449.60411349209863" y="91.8196792602539" font-size="10">*</text></g><g><rect x="450.60411349209863" y="0" height="92.8196792602539" width="32.18600810657848" fill="rgb(245, 245, 255)"></rect><text font-size="10" x="451.60411349209863" y="10"></text><path fill="rgb(224, 224, 238)" d="M482.7901215986771,0L482.7901215986771,92.8196792602539L450.60411349209863,92.8196792602539Z"></path><text text-anchor="end" x="481.7901215986771" y="91.8196792602539" font-size="10"></text></g><g><rect x="482.7901215986771" y="0" height="92.8196792602539" width="32.18600810657848" fill="rgb(253, 253, 255)"></rect><text font-size="10" x="483.7901215986771" y="10"></text><path fill="rgb(178, 177, 213)" d="M514.9761297052556,0L514.9761297052556,92.8196792602539L482.7901215986771,92.8196792602539Z"></path><text text-anchor="end" x="513.9761297052556" y="91.8196792602539" font-size="10"></text></g><g><rect x="514.9761297052556" y="0" height="92.8196792602539" width="32.18600810657848" fill="rgb(255, 201, 201)"></rect><text font-size="10" x="515.9761297052556" y="10"></text><path fill="rgb(252, 251, 253)" d="M547.1621378118341,0L547.1621378118341,92.8196792602539L514.9761297052556,92.8196792602539Z"></path><text text-anchor="end" x="546.1621378118341" y="91.8196792602539" font-size="10">*</text></g><g><rect x="547.1621378118341" y="0" height="92.8196792602539" width="32.18600810657848" fill="rgb(255, 247, 247)"></rect><text font-size="10" x="548.1621378118341" y="10"></text><path fill="rgb(218, 218, 235)" d="M579.3481459184126,0L579.3481459184126,92.8196792602539L547.1621378118341,92.8196792602539Z"></path><text text-anchor="end" x="578.3481459184126" y="91.8196792602539" font-size="10"></text></g><g><rect x="579.3481459184126" y="0" height="92.8196792602539" width="32.18600810657848" fill="rgb(204, 204, 255)"></rect><text font-size="10" x="580.3481459184126" y="10"></text><path fill="rgb(252, 251, 253)" d="M611.534154024991,0L611.534154024991,92.8196792602539L579.3481459184126,92.8196792602539Z"></path><text text-anchor="end" x="610.534154024991" y="91.8196792602539" font-size="10">*</text></g><g><rect x="611.534154024991" y="0" height="92.8196792602539" width="32.18600810657848" fill="rgb(246, 246, 255)"></rect><text font-size="10" x="612.534154024991" y="10"></text><path fill="rgb(222, 221, 237)" d="M643.7201621315695,0L643.7201621315695,92.8196792602539L611.534154024991,92.8196792602539Z"></path><text text-anchor="end" x="642.7201621315695" y="91.8196792602539" font-size="10"></text></g><g><rect x="643.7201621315695" y="0" height="92.8196792602539" width="32.18600810657848" fill="rgb(253, 253, 255)"></rect><text font-size="10" x="644.7201621315695" y="10"></text><path fill="rgb(174, 173, 211)" d="M675.906170238148,0L675.906170238148,92.8196792602539L643.7201621315695,92.8196792602539Z"></path><text text-anchor="end" x="674.906170238148" y="91.8196792602539" font-size="10"></text></g><g><rect x="675.906170238148" y="0" height="92.8196792602539" width="32.18600810657848" fill="rgb(255, 209, 209)"></rect><text font-size="10" x="676.906170238148" y="10"></text><path fill="rgb(252, 251, 253)" d="M708.0921783447264,0L708.0921783447264,92.8196792602539L675.906170238148,92.8196792602539Z"></path><text text-anchor="end" x="707.0921783447264" y="91.8196792602539" font-size="10">*</text></g></g></g></g><g transform="translate(0,97.8196792602539)"><text text-anchor="end" transform="translate(16.09300405328924,0),rotate(-45 10 0)" style="font-size: 12px;">B_cells_naive</text><text text-anchor="end" transform="translate(48.27901215986772,0),rotate(-45 10 0)" style="font-size: 12px;">B_cells_memory</text><text text-anchor="end" transform="translate(80.46502026644619,0),rotate(-45 10 0)" style="font-size: 12px;">Plasma_cells</text><text text-anchor="end" transform="translate(112.65102837302467,0),rotate(-45 10 0)" style="font-size: 12px;">T_cells_CD8</text><text text-anchor="end" transform="translate(144.83703647960314,0),rotate(-45 10 0)" style="font-size: 12px;">T_cells_CD4_naive</text><text text-anchor="end" transform="translate(177.0230445861816,0),rotate(-45 10 0)" style="font-size: 12px;">T_cells_CD4_memory_resting</text><text text-anchor="end" transform="translate(209.2090526927601,0),rotate(-45 10 0)" style="font-size: 12px;">T_cells_CD4_memory_activated</text><text text-anchor="end" transform="translate(241.39506079933858,0),rotate(-45 10 0)" style="font-size: 12px;">T_cells_follicular_helper</text><text text-anchor="end" transform="translate(273.58106890591705,0),rotate(-45 10 0)" style="font-size: 12px;">T_cells_regulatory_(Tregs)</text><text text-anchor="end" transform="translate(305.7670770124955,0),rotate(-45 10 0)" style="font-size: 12px;">T_cells_gamma_delta</text><text text-anchor="end" transform="translate(337.953085119074,0),rotate(-45 10 0)" style="font-size: 12px;">NK_cells_resting</text><text text-anchor="end" transform="translate(370.13909322565246,0),rotate(-45 10 0)" style="font-size: 12px;">NK_cells_activated</text><text text-anchor="end" transform="translate(402.325101332231,0),rotate(-45 10 0)" style="font-size: 12px;">Monocytes</text><text text-anchor="end" transform="translate(434.51110943880946,0),rotate(-45 10 0)" style="font-size: 12px;">Macrophages_M0</text><text text-anchor="end" transform="translate(466.6971175453879,0),rotate(-45 10 0)" style="font-size: 12px;">Macrophages_M1</text><text text-anchor="end" transform="translate(498.8831256519664,0),rotate(-45 10 0)" style="font-size: 12px;">Macrophages_M2</text><text text-anchor="end" transform="translate(531.0691337585449,0),rotate(-45 10 0)" style="font-size: 12px;">Dendritic_cells_resting</text><text text-anchor="end" transform="translate(563.2551418651234,0),rotate(-45 10 0)" style="font-size: 12px;">Dendritic_cells_activated</text><text text-anchor="end" transform="translate(595.4411499717019,0),rotate(-45 10 0)" style="font-size: 12px;">Mast_cells_resting</text><text text-anchor="end" transform="translate(627.6271580782803,0),rotate(-45 10 0)" style="font-size: 12px;">Mast_cells_activated</text><text text-anchor="end" transform="translate(659.8131661848588,0),rotate(-45 10 0)" style="font-size: 12px;">Eosinophils</text><text text-anchor="end" transform="translate(691.9991742914373,0),rotate(-45 10 0)" style="font-size: 12px;">Neutrophils</text></g><g transform="translate(713.0921783447266,0)"><text transform="translate(0,52.40983963012695)" style="font-size: 12px;">TCGA-LIHC(N=363)</text></g></g><g class="#plotHeatViewlegendg" transform="translate(879.2586898803711,71.47999954223633)"><g class="plotHeatViewheat1lg"><rect width="0" height="0" fill="none" stroke-width="0" stroke="currentColor" stroke-opacity="0.3" stroke-dasharray="2,3" class="plotHeatViewheat1lgBackgroundRect"></rect><text y="12" font-size="12">correlation coefficient</text><g fill="none" font-size="10" font-family="sans-serif" text-anchor="middle" transform="translate(0,35)"><path class="domain" stroke="currentColor" d="M0,6V0H100V6"></path><g class="tick" opacity="1" transform="translate(2.645406941764434,0)"><line stroke="currentColor" y2="6"></line><text fill="currentColor" y="9" dy="0.71em">−0.5</text></g><g class="tick" opacity="1" transform="translate(50,0)"><line stroke="currentColor" y2="6"></line><text fill="currentColor" y="9" dy="0.71em">0.0</text></g><g class="tick" opacity="1" transform="translate(97.35459305823555,0)"><line stroke="currentColor" y2="6"></line><text fill="currentColor" y="9" dy="0.71em">0.5</text></g></g><rect x="0" y="15" fill="rgb(0, 0, 255)" height="20" width="5"></rect><rect x="4.999999999999998" y="15" fill="rgb(90, 90, 255)" height="20" width="5"></rect><rect x="10" y="15" fill="rgb(123, 123, 255)" height="20" width="5"></rect><rect x="15" y="15" fill="rgb(148, 148, 255)" height="20" width="5"></rect><rect x="20" y="15" fill="rgb(168, 168, 255)" height="20" width="5"></rect><rect x="25" y="15" fill="rgb(186, 186, 255)" height="20" width="5"></rect><rect x="30" y="15" fill="rgb(202, 202, 255)" height="20" width="5"></rect><rect x="35" y="15" fill="rgb(217, 217, 255)" height="20" width="5"></rect><rect x="40" y="15" fill="rgb(230, 230, 255)" height="20" width="5"></rect><rect x="44.99999999999999" y="15" fill="rgb(243, 243, 255)" height="20" width="5"></rect><rect x="50" y="15" fill="rgb(255, 255, 255)" height="20" width="5"></rect><rect x="55.00000000000001" y="15" fill="rgb(255, 243, 243)" height="20" width="5"></rect><rect x="60" y="15" fill="rgb(255, 230, 230)" height="20" width="5"></rect><rect x="65" y="15" fill="rgb(255, 217, 217)" height="20" width="5"></rect><rect x="70" y="15" fill="rgb(255, 202, 202)" height="20" width="5"></rect><rect x="75" y="15" fill="rgb(255, 186, 186)" height="20" width="5"></rect><rect x="80" y="15" fill="rgb(255, 168, 168)" height="20" width="5"></rect><rect x="85" y="15" fill="rgb(255, 148, 148)" height="20" width="5"></rect><rect x="89.99999999999999" y="15" fill="rgb(255, 123, 123)" height="20" width="5"></rect><rect x="95" y="15" fill="rgb(255, 90, 90)" height="20" width="5"></rect></g><g class="plotHeatViewheat2lg" transform="translate(0,53.52000045776367)"><rect width="0" height="0" fill="none" stroke-width="0" stroke="currentColor" stroke-opacity="0.3" stroke-dasharray="2,3" class="plotHeatViewheat2lgBackgroundRect"></rect><text y="12" font-size="12">pValue</text><g fill="none" font-size="10" font-family="sans-serif" text-anchor="middle" transform="translate(0,35)"><path class="domain" stroke="currentColor" d="M0,6V0H100V6"></path><g class="tick" opacity="1" transform="translate(0,0)"><line stroke="currentColor" y2="6"></line><text fill="currentColor" y="9" dy="0.71em">0.0</text></g><g class="tick" opacity="1" transform="translate(25,0)"><line stroke="currentColor" y2="6"></line><text fill="currentColor" y="9" dy="0.71em">0.5</text></g><g class="tick" opacity="1" transform="translate(50,0)"><line stroke="currentColor" y2="6"></line><text fill="currentColor" y="9" dy="0.71em">1.0</text></g><g class="tick" opacity="1" transform="translate(75,0)"><line stroke="currentColor" y2="6"></line><text fill="currentColor" y="9" dy="0.71em">1.5</text></g><g class="tick" opacity="1" transform="translate(100,0)"><line stroke="currentColor" y2="6"></line><text fill="currentColor" y="9" dy="0.71em">2.0</text></g></g><rect x="0" y="15" fill="rgb(252, 251, 253)" height="20" width="5"></rect><rect x="5" y="15" fill="rgb(247, 245, 250)" height="20" width="5"></rect><rect x="10" y="15" fill="rgb(241, 239, 246)" height="20" width="5"></rect><rect x="15.000000000000002" y="15" fill="rgb(234, 233, 243)" height="20" width="5"></rect><rect x="20" y="15" fill="rgb(226, 225, 239)" height="20" width="5"></rect><rect x="25" y="15" fill="rgb(217, 216, 234)" height="20" width="5"></rect><rect x="30.000000000000004" y="15" fill="rgb(206, 206, 229)" height="20" width="5"></rect><rect x="35" y="15" fill="rgb(194, 194, 223)" height="20" width="5"></rect><rect x="40" y="15" fill="rgb(182, 181, 216)" height="20" width="5"></rect><rect x="45" y="15" fill="rgb(170, 168, 208)" height="20" width="5"></rect><rect x="50" y="15" fill="rgb(158, 155, 201)" height="20" width="5"></rect><rect x="55.00000000000001" y="15" fill="rgb(146, 142, 195)" height="20" width="5"></rect><rect x="60.00000000000001" y="15" fill="rgb(135, 130, 188)" height="20" width="5"></rect><rect x="65" y="15" fill="rgb(124, 115, 181)" height="20" width="5"></rect><rect x="70" y="15" fill="rgb(115, 99, 172)" height="20" width="5"></rect><rect x="75" y="15" fill="rgb(106, 81, 164)" height="20" width="5"></rect><rect x="80" y="15" fill="rgb(97, 64, 155)" height="20" width="5"></rect><rect x="85.00000000000001" y="15" fill="rgb(88, 48, 147)" height="20" width="5"></rect><rect x="90" y="15" fill="rgb(80, 31, 140)" height="20" width="5"></rect><rect x="95" y="15" fill="rgb(71, 16, 132)" height="20" width="5"></rect></g></g></svg>