<svg version="1.1" xmlns="http://www.w3.org/2000/svg" xmlns:xlink="http://www.w3.org/1999/xlink" width="600px" height="150px" viewBox="0 0 600 150"><style>text{font-family:Times new roman;font-size: 12px;}tspan{font-family:Times new roman;font-size: 12px;}</style><rect width="600" height="150" fill="#fff" x="0" y="0"></rect><g transform="translate(20,20)"><g transform="translate(0,0)"><rect x="0" y="0" height="59.98377990722656" width="333.912109375" stroke="#000" stroke-width="2" fill="none"></rect><g></g><g><g><g><rect x="0" y="0" height="59.98377990722656" width="41.739013671875" fill="rgb(255, 254, 254)"></rect><text font-size="10" x="1" y="10"></text><path fill="rgb(173, 172, 210)" d="M41.739013671875,0L41.739013671875,59.98377990722656L0,59.98377990722656Z"></path><text text-anchor="end" x="40.739013671875" y="58.98377990722656" font-size="10"></text></g><g><rect x="41.739013671875" y="0" height="59.98377990722656" width="41.739013671875" fill="rgb(255, 191, 191)"></rect><text font-size="10" x="42.739013671875" y="10">0.35</text><path fill="rgb(252, 251, 253)" d="M83.47802734375,0L83.47802734375,59.98377990722656L41.739013671875,59.98377990722656Z"></path><text text-anchor="end" x="82.47802734375" y="58.98377990722656" font-size="10">****</text></g><g><rect x="83.47802734375" y="0" height="59.98377990722656" width="41.739013671875" fill="rgb(255, 238, 238)"></rect><text font-size="10" x="84.47802734375" y="10"></text><path fill="rgb(249, 248, 251)" d="M125.217041015625,0L125.217041015625,59.98377990722656L83.47802734375,59.98377990722656Z"></path><text text-anchor="end" x="124.217041015625" y="58.98377990722656" font-size="10"></text></g><g><rect x="125.217041015625" y="0" height="59.98377990722656" width="41.739013671875" fill="rgb(251, 251, 255)"></rect><text font-size="10" x="126.217041015625" y="10"></text><path fill="rgb(203, 203, 227)" d="M166.9560546875,0L166.9560546875,59.98377990722656L125.217041015625,59.98377990722656Z"></path><text text-anchor="end" x="165.9560546875" y="58.98377990722656" font-size="10"></text></g><g><rect x="166.9560546875" y="0" height="59.98377990722656" width="41.739013671875" fill="rgb(246, 246, 255)"></rect><text font-size="10" x="167.9560546875" y="10"></text><path fill="rgb(233, 232, 242)" d="M208.695068359375,0L208.695068359375,59.98377990722656L166.9560546875,59.98377990722656Z"></path><text text-anchor="end" x="207.695068359375" y="58.98377990722656" font-size="10"></text></g><g><rect x="208.695068359375" y="0" height="59.98377990722656" width="41.739013671875" fill="rgb(170, 170, 255)"></rect><text font-size="10" x="209.695068359375" y="10">-0.43</text><path fill="rgb(252, 251, 253)" d="M250.43408203125,0L250.43408203125,59.98377990722656L208.695068359375,59.98377990722656Z"></path><text text-anchor="end" x="249.43408203125" y="58.98377990722656" font-size="10">****</text></g><g><rect x="250.43408203125" y="0" height="59.98377990722656" width="41.739013671875" fill="rgb(252, 252, 255)"></rect><text font-size="10" x="251.43408203125" y="10"></text><path fill="rgb(188, 188, 219)" d="M292.173095703125,0L292.173095703125,59.98377990722656L250.43408203125,59.98377990722656Z"></path><text text-anchor="end" x="291.173095703125" y="58.98377990722656" font-size="10"></text></g><g><rect x="292.173095703125" y="0" height="59.98377990722656" width="41.739013671875" fill="rgb(255, 184, 184)"></rect><text font-size="10" x="293.173095703125" y="10">0.38</text><path fill="rgb(252, 251, 253)" d="M333.912109375,0L333.912109375,59.98377990722656L292.173095703125,59.98377990722656Z"></path><text text-anchor="end" x="332.912109375" y="58.98377990722656" font-size="10">****</text></g></g></g></g><g transform="translate(0,64.98377990722656)"><text text-anchor="end" transform="translate(20.8695068359375,0),rotate(-45 10 0)" style="font-size: 12px;">Bcells</text><text text-anchor="end" transform="translate(62.6085205078125,0),rotate(-45 10 0)" style="font-size: 12px;">CAFs</text><text text-anchor="end" transform="translate(104.3475341796875,0),rotate(-45 10 0)" style="font-size: 12px;">CD4_Tcells</text><text text-anchor="end" transform="translate(146.0865478515625,0),rotate(-45 10 0)" style="font-size: 12px;">CD8_Tcells</text><text text-anchor="end" transform="translate(187.8255615234375,0),rotate(-45 10 0)" style="font-size: 12px;">Endothelial</text><text text-anchor="end" transform="translate(229.5645751953125,0),rotate(-45 10 0)" style="font-size: 12px;">Macrophages</text><text text-anchor="end" transform="translate(271.3035888671875,0),rotate(-45 10 0)" style="font-size: 12px;">NKcells</text><text text-anchor="end" transform="translate(313.0426025390625,0),rotate(-45 10 0)" style="font-size: 12px;">otherCells</text></g><g transform="translate(338.912109375,0)"><text transform="translate(0,35.99188995361328)" style="font-size: 12px;">TCGA-LIHC(N=363)</text></g></g><g class="#plotHeatViewlegendg" transform="translate(480,21.479999542236328)"><g class="plotHeatViewheat1lg"><rect width="106.220703125" height="53.52000045776367" fill="none" stroke-width="0" stroke="currentColor" stroke-opacity="0.3" stroke-dasharray="2,3" class="plotHeatViewheat1lgBackgroundRect"></rect><text y="12" font-size="12">correlation coefficient</text><g fill="none" font-size="10" font-family="sans-serif" text-anchor="middle" transform="translate(0,35)"><path class="domain" stroke="currentColor" d="M0,6V0H100V6"></path><g class="tick" opacity="1" transform="translate(16.007852653596515,0)"><line stroke="currentColor" y2="6"></line><text fill="currentColor" y="9" dy="0.71em">−0.5</text></g><g class="tick" opacity="1" transform="translate(50,0)"><line stroke="currentColor" y2="6"></line><text fill="currentColor" y="9" dy="0.71em">0.0</text></g><g class="tick" opacity="1" transform="translate(83.99214734640348,0)"><line stroke="currentColor" y2="6"></line><text fill="currentColor" y="9" dy="0.71em">0.5</text></g></g><rect x="0" y="15" fill="rgb(0, 0, 255)" height="20" width="5"></rect><rect x="5.000000000000003" y="15" fill="rgb(90, 90, 255)" height="20" width="5"></rect><rect x="9.999999999999996" y="15" fill="rgb(123, 123, 255)" height="20" width="5"></rect><rect x="15" y="15" fill="rgb(148, 148, 255)" height="20" width="5"></rect><rect x="20" y="15" fill="rgb(168, 168, 255)" height="20" width="5"></rect><rect x="25.000000000000007" y="15" fill="rgb(186, 186, 255)" height="20" width="5"></rect><rect x="30.000000000000004" y="15" fill="rgb(202, 202, 255)" height="20" width="5"></rect><rect x="35" y="15" fill="rgb(217, 217, 255)" height="20" width="5"></rect><rect x="40" y="15" fill="rgb(230, 230, 255)" height="20" width="5"></rect><rect x="45.00000000000001" y="15" fill="rgb(243, 243, 255)" height="20" width="5"></rect><rect x="50.000000000000014" y="15" fill="rgb(255, 255, 255)" height="20" width="5"></rect><rect x="55.00000000000001" y="15" fill="rgb(255, 243, 243)" height="20" width="5"></rect><rect x="60.00000000000001" y="15" fill="rgb(255, 230, 230)" height="20" width="5"></rect><rect x="65" y="15" fill="rgb(255, 217, 217)" height="20" width="5"></rect><rect x="70" y="15" fill="rgb(255, 202, 202)" height="20" width="5"></rect><rect x="75.00000000000001" y="15" fill="rgb(255, 186, 186)" height="20" width="5"></rect><rect x="80" y="15" fill="rgb(255, 168, 168)" height="20" width="5"></rect><rect x="85" y="15" fill="rgb(255, 148, 148)" height="20" width="5"></rect><rect x="90.00000000000001" y="15" fill="rgb(255, 123, 123)" height="20" width="5"></rect><rect x="95" y="15" fill="rgb(255, 90, 90)" height="20" width="5"></rect></g><g class="plotHeatViewheat2lg" transform="translate(0,53.52000045776367)"><rect width="0" height="0" fill="none" stroke-width="0" stroke="currentColor" stroke-opacity="0.3" stroke-dasharray="2,3" class="plotHeatViewheat2lgBackgroundRect"></rect><text y="12" font-size="12">pValue</text><g fill="none" font-size="10" font-family="sans-serif" text-anchor="middle" transform="translate(0,35)"><path class="domain" stroke="currentColor" d="M0,6V0H100V6"></path><g class="tick" opacity="1" transform="translate(0,0)"><line stroke="currentColor" y2="6"></line><text fill="currentColor" y="9" dy="0.71em">0.0</text></g><g class="tick" opacity="1" transform="translate(25,0)"><line stroke="currentColor" y2="6"></line><text fill="currentColor" y="9" dy="0.71em">0.5</text></g><g class="tick" opacity="1" transform="translate(50,0)"><line stroke="currentColor" y2="6"></line><text fill="currentColor" y="9" dy="0.71em">1.0</text></g><g class="tick" opacity="1" transform="translate(75,0)"><line stroke="currentColor" y2="6"></line><text fill="currentColor" y="9" dy="0.71em">1.5</text></g><g class="tick" opacity="1" transform="translate(100,0)"><line stroke="currentColor" y2="6"></line><text fill="currentColor" y="9" dy="0.71em">2.0</text></g></g><rect x="0" y="15" fill="rgb(252, 251, 253)" height="20" width="5"></rect><rect x="5" y="15" fill="rgb(247, 245, 250)" height="20" width="5"></rect><rect x="10" y="15" fill="rgb(241, 239, 246)" height="20" width="5"></rect><rect x="15.000000000000002" y="15" fill="rgb(234, 233, 243)" height="20" width="5"></rect><rect x="20" y="15" fill="rgb(226, 225, 239)" height="20" width="5"></rect><rect x="25" y="15" fill="rgb(217, 216, 234)" height="20" width="5"></rect><rect x="30.000000000000004" y="15" fill="rgb(206, 206, 229)" height="20" width="5"></rect><rect x="35" y="15" fill="rgb(194, 194, 223)" height="20" width="5"></rect><rect x="40" y="15" fill="rgb(182, 181, 216)" height="20" width="5"></rect><rect x="45" y="15" fill="rgb(170, 168, 208)" height="20" width="5"></rect><rect x="50" y="15" fill="rgb(158, 155, 201)" height="20" width="5"></rect><rect x="55.00000000000001" y="15" fill="rgb(146, 142, 195)" height="20" width="5"></rect><rect x="60.00000000000001" y="15" fill="rgb(135, 130, 188)" height="20" width="5"></rect><rect x="65" y="15" fill="rgb(124, 115, 181)" height="20" width="5"></rect><rect x="70" y="15" fill="rgb(115, 99, 172)" height="20" width="5"></rect><rect x="75" y="15" fill="rgb(106, 81, 164)" height="20" width="5"></rect><rect x="80" y="15" fill="rgb(97, 64, 155)" height="20" width="5"></rect><rect x="85.00000000000001" y="15" fill="rgb(88, 48, 147)" height="20" width="5"></rect><rect x="90" y="15" fill="rgb(80, 31, 140)" height="20" width="5"></rect><rect x="95" y="15" fill="rgb(71, 16, 132)" height="20" width="5"></rect></g></g></svg>