<svg version="1.1" xmlns="http://www.w3.org/2000/svg" xmlns:xlink="http://www.w3.org/1999/xlink" width="600px" height="150px" viewBox="0 0 600 150"><style>text{font-family:Times new roman;font-size: 12px;}tspan{font-family:Times new roman;font-size: 12px;}</style><rect width="600" height="150" fill="#fff" x="0" y="0"></rect><g transform="translate(20,20)"><g transform="translate(0,0)"><rect x="0" y="0" height="86.35527038574219" width="333.912109375" stroke="#000" stroke-width="2" fill="none"></rect><g></g><g><g><g><rect x="0" y="0" height="86.35527038574219" width="55.652018229166664" fill="rgb(238, 238, 255)"></rect><text font-size="10" x="1" y="10"></text><path fill="rgb(245, 243, 249)" d="M55.652018229166664,0L55.652018229166664,86.35527038574219L0,86.35527038574219Z"></path><text text-anchor="end" x="54.652018229166664" y="85.35527038574219" font-size="10"></text></g><g><rect x="55.652018229166664" y="0" height="86.35527038574219" width="55.652018229166664" fill="rgb(255, 161, 161)"></rect><text font-size="10" x="56.652018229166664" y="10">0.36</text><path fill="rgb(252, 251, 253)" d="M111.30403645833333,0L111.30403645833333,86.35527038574219L55.652018229166664,86.35527038574219Z"></path><text text-anchor="end" x="110.30403645833333" y="85.35527038574219" font-size="10">****</text></g><g><rect x="111.30403645833333" y="0" height="86.35527038574219" width="55.652018229166664" fill="rgb(183, 183, 255)"></rect><text font-size="10" x="112.30403645833333" y="10">-0.29</text><path fill="rgb(252, 251, 253)" d="M166.9560546875,0L166.9560546875,86.35527038574219L111.30403645833333,86.35527038574219Z"></path><text text-anchor="end" x="165.9560546875" y="85.35527038574219" font-size="10">****</text></g><g><rect x="166.9560546875" y="0" height="86.35527038574219" width="55.652018229166664" fill="rgb(218, 218, 255)"></rect><text font-size="10" x="167.9560546875" y="10">-0.16</text><path fill="rgb(252, 251, 253)" d="M222.60807291666666,0L222.60807291666666,86.35527038574219L166.9560546875,86.35527038574219Z"></path><text text-anchor="end" x="221.60807291666666" y="85.35527038574219" font-size="10">**</text></g><g><rect x="222.60807291666666" y="0" height="86.35527038574219" width="55.652018229166664" fill="rgb(205, 205, 255)"></rect><text font-size="10" x="223.60807291666666" y="10">-0.21</text><path fill="rgb(252, 251, 253)" d="M278.2600911458333,0L278.2600911458333,86.35527038574219L222.60807291666666,86.35527038574219Z"></path><text text-anchor="end" x="277.2600911458333" y="85.35527038574219" font-size="10">****</text></g><g><rect x="278.2600911458333" y="0" height="86.35527038574219" width="55.652018229166664" fill="rgb(240, 240, 255)"></rect><text font-size="10" x="279.2600911458333" y="10"></text><path fill="rgb(242, 241, 247)" d="M333.912109375,0L333.912109375,86.35527038574219L278.2600911458333,86.35527038574219Z"></path><text text-anchor="end" x="332.912109375" y="85.35527038574219" font-size="10"></text></g></g></g></g><g transform="translate(0,91.35527038574219)"><text text-anchor="end" transform="translate(27.826009114583332,0),rotate(-45 10 0)" style="font-size: 12px;">MHC</text><text text-anchor="end" transform="translate(83.47802734375,0),rotate(-45 10 0)" style="font-size: 12px;">EC</text><text text-anchor="end" transform="translate(139.13004557291666,0),rotate(-45 10 0)" style="font-size: 12px;">SC</text><text text-anchor="end" transform="translate(194.78206380208331,0),rotate(-45 10 0)" style="font-size: 12px;">CP</text><text text-anchor="end" transform="translate(250.43408203125,0),rotate(-45 10 0)" style="font-size: 12px;">AZ</text><text text-anchor="end" transform="translate(306.08610026041663,0),rotate(-45 10 0)" style="font-size: 12px;">IPS</text></g><g transform="translate(338.912109375,0)"><text transform="translate(0,49.177635192871094)" style="font-size: 12px;">TCGA-LIHC(N=363)</text></g></g><g class="#plotHeatViewlegendg" transform="translate(480,21.479999542236328)"><g class="plotHeatViewheat1lg"><rect width="111.968994140625" height="53.52000045776367" fill="none" stroke-width="0" stroke="currentColor" stroke-opacity="0.3" stroke-dasharray="2,3" class="plotHeatViewheat1lgBackgroundRect"></rect><text y="12" font-size="12">correlation coefficient</text><g fill="none" font-size="10" font-family="sans-serif" text-anchor="middle" transform="translate(0,35)"><path class="domain" stroke="currentColor" d="M0,6V0H100V6"></path><g class="tick" opacity="1" transform="translate(5.138430419727044,0)"><line stroke="currentColor" y2="6"></line><text fill="currentColor" y="9" dy="0.71em">−0.5</text></g><g class="tick" opacity="1" transform="translate(50,0)"><line stroke="currentColor" y2="6"></line><text fill="currentColor" y="9" dy="0.71em">0.0</text></g><g class="tick" opacity="1" transform="translate(94.86156958027294,0)"><line stroke="currentColor" y2="6"></line><text fill="currentColor" y="9" dy="0.71em">0.5</text></g></g><rect x="0" y="15" fill="rgb(0, 0, 255)" height="20" width="5"></rect><rect x="4.9999999999999964" y="15" fill="rgb(90, 90, 255)" height="20" width="5"></rect><rect x="10" y="15" fill="rgb(123, 123, 255)" height="20" width="5"></rect><rect x="15.000000000000002" y="15" fill="rgb(148, 148, 255)" height="20" width="5"></rect><rect x="20" y="15" fill="rgb(168, 168, 255)" height="20" width="5"></rect><rect x="25" y="15" fill="rgb(186, 186, 255)" height="20" width="5"></rect><rect x="30.000000000000004" y="15" fill="rgb(202, 202, 255)" height="20" width="5"></rect><rect x="35" y="15" fill="rgb(217, 217, 255)" height="20" width="5"></rect><rect x="40" y="15" fill="rgb(230, 230, 255)" height="20" width="5"></rect><rect x="45" y="15" fill="rgb(243, 243, 255)" height="20" width="5"></rect><rect x="50" y="15" fill="rgb(255, 255, 255)" height="20" width="5"></rect><rect x="54.99999999999999" y="15" fill="rgb(255, 243, 243)" height="20" width="5"></rect><rect x="60.00000000000001" y="15" fill="rgb(255, 230, 230)" height="20" width="5"></rect><rect x="65" y="15" fill="rgb(255, 217, 217)" height="20" width="5"></rect><rect x="70" y="15" fill="rgb(255, 202, 202)" height="20" width="5"></rect><rect x="75" y="15" fill="rgb(255, 186, 186)" height="20" width="5"></rect><rect x="80" y="15" fill="rgb(255, 168, 168)" height="20" width="5"></rect><rect x="85" y="15" fill="rgb(255, 148, 148)" height="20" width="5"></rect><rect x="90" y="15" fill="rgb(255, 123, 123)" height="20" width="5"></rect><rect x="95" y="15" fill="rgb(255, 90, 90)" height="20" width="5"></rect></g><g class="plotHeatViewheat2lg" transform="translate(0,53.52000045776367)"><rect width="115" height="53.52000045776367" fill="none" stroke-width="0" stroke="currentColor" stroke-opacity="0.3" stroke-dasharray="2,3" class="plotHeatViewheat2lgBackgroundRect"></rect><text y="12" font-size="12">pValue</text><g fill="none" font-size="10" font-family="sans-serif" text-anchor="middle" transform="translate(0,35)"><path class="domain" stroke="currentColor" d="M0,6V0H100V6"></path><g class="tick" opacity="1" transform="translate(0,0)"><line stroke="currentColor" y2="6"></line><text fill="currentColor" y="9" dy="0.71em">0.0</text></g><g class="tick" opacity="1" transform="translate(25,0)"><line stroke="currentColor" y2="6"></line><text fill="currentColor" y="9" dy="0.71em">0.5</text></g><g class="tick" opacity="1" transform="translate(50,0)"><line stroke="currentColor" y2="6"></line><text fill="currentColor" y="9" dy="0.71em">1.0</text></g><g class="tick" opacity="1" transform="translate(75,0)"><line stroke="currentColor" y2="6"></line><text fill="currentColor" y="9" dy="0.71em">1.5</text></g><g class="tick" opacity="1" transform="translate(100,0)"><line stroke="currentColor" y2="6"></line><text fill="currentColor" y="9" dy="0.71em">2.0</text></g></g><rect x="0" y="15" fill="rgb(252, 251, 253)" height="20" width="5"></rect><rect x="5" y="15" fill="rgb(247, 245, 250)" height="20" width="5"></rect><rect x="10" y="15" fill="rgb(241, 239, 246)" height="20" width="5"></rect><rect x="15.000000000000002" y="15" fill="rgb(234, 233, 243)" height="20" width="5"></rect><rect x="20" y="15" fill="rgb(226, 225, 239)" height="20" width="5"></rect><rect x="25" y="15" fill="rgb(217, 216, 234)" height="20" width="5"></rect><rect x="30.000000000000004" y="15" fill="rgb(206, 206, 229)" height="20" width="5"></rect><rect x="35" y="15" fill="rgb(194, 194, 223)" height="20" width="5"></rect><rect x="40" y="15" fill="rgb(182, 181, 216)" height="20" width="5"></rect><rect x="45" y="15" fill="rgb(170, 168, 208)" height="20" width="5"></rect><rect x="50" y="15" fill="rgb(158, 155, 201)" height="20" width="5"></rect><rect x="55.00000000000001" y="15" fill="rgb(146, 142, 195)" height="20" width="5"></rect><rect x="60.00000000000001" y="15" fill="rgb(135, 130, 188)" height="20" width="5"></rect><rect x="65" y="15" fill="rgb(124, 115, 181)" height="20" width="5"></rect><rect x="70" y="15" fill="rgb(115, 99, 172)" height="20" width="5"></rect><rect x="75" y="15" fill="rgb(106, 81, 164)" height="20" width="5"></rect><rect x="80" y="15" fill="rgb(97, 64, 155)" height="20" width="5"></rect><rect x="85.00000000000001" y="15" fill="rgb(88, 48, 147)" height="20" width="5"></rect><rect x="90" y="15" fill="rgb(80, 31, 140)" height="20" width="5"></rect><rect x="95" y="15" fill="rgb(71, 16, 132)" height="20" width="5"></rect></g></g></svg>