<svg version="1.1" xmlns="http://www.w3.org/2000/svg" xmlns:xlink="http://www.w3.org/1999/xlink" width="1500px" height="200px" viewBox="0 0 1500 200"><style>text{font-family:Times new roman;font-size: 12px;}tspan{font-family:Times new roman;font-size: 12px;}</style><rect width="1500" height="200" fill="#fff" x="0" y="0"></rect><g transform="translate(31.83251953125,20)"><g transform="translate(0,0)"><rect x="0" y="0" height="43.50883483886719" width="1222.07958984375" stroke="#000" stroke-width="2" fill="none"></rect><g></g><g><g><g><rect x="0" y="0" height="43.50883483886719" width="18.239993878264926" fill="rgb(255, 239, 239)"></rect><text font-size="10" x="1" y="10"></text><path fill="rgb(251, 250, 252)" d="M18.239993878264926,0L18.239993878264926,43.50883483886719L0,43.50883483886719Z"></path><text text-anchor="end" x="17.239993878264926" y="42.50883483886719" font-size="10">*</text></g><g><rect x="18.239993878264926" y="0" height="43.50883483886719" width="18.239993878264926" fill="rgb(213, 213, 255)"></rect><text font-size="10" x="19.239993878264926" y="10"></text><path fill="rgb(252, 251, 253)" d="M36.47998775652985,0L36.47998775652985,43.50883483886719L18.239993878264926,43.50883483886719Z"></path><text text-anchor="end" x="35.47998775652985" y="42.50883483886719" font-size="10">*</text></g><g><rect x="36.47998775652985" y="0" height="43.50883483886719" width="18.239993878264926" fill="rgb(255, 226, 226)"></rect><text font-size="10" x="37.47998775652985" y="10"></text><path fill="rgb(252, 251, 253)" d="M54.71998163479478,0L54.71998163479478,43.50883483886719L36.47998775652985,43.50883483886719Z"></path><text text-anchor="end" x="53.71998163479478" y="42.50883483886719" font-size="10">*</text></g><g><rect x="54.71998163479478" y="0" height="43.50883483886719" width="18.239993878264926" fill="rgb(255, 245, 245)"></rect><text font-size="10" x="55.71998163479478" y="10"></text><path fill="rgb(243, 242, 248)" d="M72.9599755130597,0L72.9599755130597,43.50883483886719L54.71998163479478,43.50883483886719Z"></path><text text-anchor="end" x="71.9599755130597" y="42.50883483886719" font-size="10"></text></g><g><rect x="72.9599755130597" y="0" height="43.50883483886719" width="18.239993878264926" fill="rgb(227, 227, 255)"></rect><text font-size="10" x="73.9599755130597" y="10"></text><path fill="rgb(252, 251, 253)" d="M91.19996939132463,0L91.19996939132463,43.50883483886719L72.9599755130597,43.50883483886719Z"></path><text text-anchor="end" x="90.19996939132463" y="42.50883483886719" font-size="10">*</text></g><g><rect x="91.19996939132463" y="0" height="43.50883483886719" width="18.239993878264926" fill="rgb(255, 230, 230)"></rect><text font-size="10" x="92.19996939132463" y="10"></text><path fill="rgb(252, 251, 253)" d="M109.43996326958955,0L109.43996326958955,43.50883483886719L91.19996939132463,43.50883483886719Z"></path><text text-anchor="end" x="108.43996326958955" y="42.50883483886719" font-size="10">*</text></g><g><rect x="109.43996326958955" y="0" height="43.50883483886719" width="18.239993878264926" fill="rgb(255, 229, 229)"></rect><text font-size="10" x="110.43996326958955" y="10"></text><path fill="rgb(252, 251, 253)" d="M127.67995714785448,0L127.67995714785448,43.50883483886719L109.43996326958955,43.50883483886719Z"></path><text text-anchor="end" x="126.67995714785448" y="42.50883483886719" font-size="10">*</text></g><g><rect x="127.67995714785448" y="0" height="43.50883483886719" width="18.239993878264926" fill="rgb(255, 242, 242)"></rect><text font-size="10" x="128.67995714785448" y="10"></text><path fill="rgb(248, 247, 251)" d="M145.9199510261194,0L145.9199510261194,43.50883483886719L127.67995714785448,43.50883483886719Z"></path><text text-anchor="end" x="144.9199510261194" y="42.50883483886719" font-size="10"></text></g><g><rect x="145.9199510261194" y="0" height="43.50883483886719" width="18.239993878264926" fill="rgb(237, 237, 255)"></rect><text font-size="10" x="146.9199510261194" y="10"></text><path fill="rgb(251, 250, 252)" d="M164.15994490438433,0L164.15994490438433,43.50883483886719L145.9199510261194,43.50883483886719Z"></path><text text-anchor="end" x="163.15994490438433" y="42.50883483886719" font-size="10">*</text></g><g><rect x="164.15994490438433" y="0" height="43.50883483886719" width="18.239993878264926" fill="rgb(255, 245, 245)"></rect><text font-size="10" x="165.15994490438433" y="10"></text><path fill="rgb(243, 241, 248)" d="M182.39993878264926,0L182.39993878264926,43.50883483886719L164.15994490438433,43.50883483886719Z"></path><text text-anchor="end" x="181.39993878264926" y="42.50883483886719" font-size="10"></text></g><g><rect x="182.39993878264926" y="0" height="43.50883483886719" width="18.239993878264926" fill="rgb(200, 200, 255)"></rect><text font-size="10" x="183.39993878264926" y="10"></text><path fill="rgb(252, 251, 253)" d="M200.63993266091418,0L200.63993266091418,43.50883483886719L182.39993878264926,43.50883483886719Z"></path><text text-anchor="end" x="199.63993266091418" y="42.50883483886719" font-size="10">*</text></g><g><rect x="200.63993266091418" y="0" height="43.50883483886719" width="18.239993878264926" fill="rgb(255, 247, 247)"></rect><text font-size="10" x="201.63993266091418" y="10"></text><path fill="rgb(235, 233, 243)" d="M218.8799265391791,0L218.8799265391791,43.50883483886719L200.63993266091418,43.50883483886719Z"></path><text text-anchor="end" x="217.8799265391791" y="42.50883483886719" font-size="10"></text></g><g><rect x="218.8799265391791" y="0" height="43.50883483886719" width="18.239993878264926" fill="rgb(255, 247, 247)"></rect><text font-size="10" x="219.8799265391791" y="10"></text><path fill="rgb(236, 234, 244)" d="M237.11992041744404,0L237.11992041744404,43.50883483886719L218.8799265391791,43.50883483886719Z"></path><text text-anchor="end" x="236.11992041744404" y="42.50883483886719" font-size="10"></text></g><g><rect x="237.11992041744404" y="0" height="43.50883483886719" width="18.239993878264926" fill="rgb(255, 250, 250)"></rect><text font-size="10" x="238.11992041744404" y="10"></text><path fill="rgb(220, 220, 236)" d="M255.35991429570896,0L255.35991429570896,43.50883483886719L237.11992041744404,43.50883483886719Z"></path><text text-anchor="end" x="254.35991429570896" y="42.50883483886719" font-size="10"></text></g><g><rect x="255.35991429570896" y="0" height="43.50883483886719" width="18.239993878264926" fill="rgb(255, 249, 249)"></rect><text font-size="10" x="256.35991429570896" y="10"></text><path fill="rgb(222, 221, 237)" d="M273.59990817397386,0L273.59990817397386,43.50883483886719L255.35991429570896,43.50883483886719Z"></path><text text-anchor="end" x="272.59990817397386" y="42.50883483886719" font-size="10"></text></g><g><rect x="273.59990817397386" y="0" height="43.50883483886719" width="18.239993878264926" fill="rgb(255, 210, 210)"></rect><text font-size="10" x="274.59990817397386" y="10"></text><path fill="rgb(252, 251, 253)" d="M291.8399020522388,0L291.8399020522388,43.50883483886719L273.59990817397386,43.50883483886719Z"></path><text text-anchor="end" x="290.8399020522388" y="42.50883483886719" font-size="10">*</text></g><g><rect x="291.8399020522388" y="0" height="43.50883483886719" width="18.239993878264926" fill="rgb(255, 230, 230)"></rect><text font-size="10" x="292.8399020522388" y="10"></text><path fill="rgb(252, 251, 253)" d="M310.07989593050377,0L310.07989593050377,43.50883483886719L291.8399020522388,43.50883483886719Z"></path><text text-anchor="end" x="309.07989593050377" y="42.50883483886719" font-size="10">*</text></g><g><rect x="310.07989593050377" y="0" height="43.50883483886719" width="18.239993878264926" fill="rgb(255, 199, 199)"></rect><text font-size="10" x="311.07989593050377" y="10"></text><path fill="rgb(252, 251, 253)" d="M328.3198898087687,0L328.3198898087687,43.50883483886719L310.07989593050377,43.50883483886719Z"></path><text text-anchor="end" x="327.3198898087687" y="42.50883483886719" font-size="10">*</text></g><g><rect x="328.3198898087687" y="0" height="43.50883483886719" width="18.239993878264926" fill="rgb(231, 231, 255)"></rect><text font-size="10" x="329.3198898087687" y="10"></text><path fill="rgb(252, 251, 253)" d="M346.5598836870337,0L346.5598836870337,43.50883483886719L328.3198898087687,43.50883483886719Z"></path><text text-anchor="end" x="345.5598836870337" y="42.50883483886719" font-size="10">*</text></g><g><rect x="346.5598836870337" y="0" height="43.50883483886719" width="18.239993878264926" fill="rgb(255, 251, 251)"></rect><text font-size="10" x="347.5598836870337" y="10"></text><path fill="rgb(210, 210, 231)" d="M364.79987756529863,0L364.79987756529863,43.50883483886719L346.5598836870337,43.50883483886719Z"></path><text text-anchor="end" x="363.79987756529863" y="42.50883483886719" font-size="10"></text></g><g><rect x="364.79987756529863" y="0" height="43.50883483886719" width="18.239993878264926" fill="rgb(239, 239, 255)"></rect><text font-size="10" x="365.79987756529863" y="10"></text><path fill="rgb(250, 249, 252)" d="M383.0398714435636,0L383.0398714435636,43.50883483886719L364.79987756529863,43.50883483886719Z"></path><text text-anchor="end" x="382.0398714435636" y="42.50883483886719" font-size="10">*</text></g><g><rect x="383.0398714435636" y="0" height="43.50883483886719" width="18.239993878264926" fill="rgb(250, 250, 255)"></rect><text font-size="10" x="384.0398714435636" y="10"></text><path fill="rgb(217, 217, 234)" d="M401.27986532182854,0L401.27986532182854,43.50883483886719L383.0398714435636,43.50883483886719Z"></path><text text-anchor="end" x="400.27986532182854" y="42.50883483886719" font-size="10"></text></g><g><rect x="401.27986532182854" y="0" height="43.50883483886719" width="18.239993878264926" fill="rgb(255, 198, 198)"></rect><text font-size="10" x="402.27986532182854" y="10"></text><path fill="rgb(252, 251, 253)" d="M419.5198592000935,0L419.5198592000935,43.50883483886719L401.27986532182854,43.50883483886719Z"></path><text text-anchor="end" x="418.5198592000935" y="42.50883483886719" font-size="10">*</text></g><g><rect x="419.5198592000935" y="0" height="43.50883483886719" width="18.239993878264926" fill="rgb(255, 247, 247)"></rect><text font-size="10" x="420.5198592000935" y="10"></text><path fill="rgb(235, 234, 243)" d="M437.75985307835845,0L437.75985307835845,43.50883483886719L419.5198592000935,43.50883483886719Z"></path><text text-anchor="end" x="436.75985307835845" y="42.50883483886719" font-size="10"></text></g><g><rect x="437.75985307835845" y="0" height="43.50883483886719" width="18.239993878264926" fill="rgb(255, 221, 221)"></rect><text font-size="10" x="438.75985307835845" y="10"></text><path fill="rgb(252, 251, 253)" d="M455.9998469566234,0L455.9998469566234,43.50883483886719L437.75985307835845,43.50883483886719Z"></path><text text-anchor="end" x="454.9998469566234" y="42.50883483886719" font-size="10">*</text></g><g><rect x="455.9998469566234" y="0" height="43.50883483886719" width="18.239993878264926" fill="rgb(242, 242, 255)"></rect><text font-size="10" x="456.9998469566234" y="10"></text><path fill="rgb(248, 247, 251)" d="M474.23984083488835,0L474.23984083488835,43.50883483886719L455.9998469566234,43.50883483886719Z"></path><text text-anchor="end" x="473.23984083488835" y="42.50883483886719" font-size="10"></text></g><g><rect x="474.23984083488835" y="0" height="43.50883483886719" width="18.239993878264926" fill="rgb(187, 187, 255)"></rect><text font-size="10" x="475.23984083488835" y="10"></text><path fill="rgb(252, 251, 253)" d="M492.4798347131533,0L492.4798347131533,43.50883483886719L474.23984083488835,43.50883483886719Z"></path><text text-anchor="end" x="491.4798347131533" y="42.50883483886719" font-size="10">*</text></g><g><rect x="492.4798347131533" y="0" height="43.50883483886719" width="18.239993878264926" fill="rgb(249, 249, 255)"></rect><text font-size="10" x="493.4798347131533" y="10"></text><path fill="rgb(227, 226, 239)" d="M510.71982859141826,0L510.71982859141826,43.50883483886719L492.4798347131533,43.50883483886719Z"></path><text text-anchor="end" x="509.71982859141826" y="42.50883483886719" font-size="10"></text></g><g><rect x="510.71982859141826" y="0" height="43.50883483886719" width="18.239993878264926" fill="rgb(240, 240, 255)"></rect><text font-size="10" x="511.71982859141826" y="10"></text><path fill="rgb(249, 248, 251)" d="M528.9598224696832,0L528.9598224696832,43.50883483886719L510.71982859141826,43.50883483886719Z"></path><text text-anchor="end" x="527.9598224696832" y="42.50883483886719" font-size="10">*</text></g><g><rect x="528.9598224696832" y="0" height="43.50883483886719" width="18.239993878264926" fill="rgb(255, 215, 215)"></rect><text font-size="10" x="529.9598224696832" y="10"></text><path fill="rgb(252, 251, 253)" d="M547.1998163479482,0L547.1998163479482,43.50883483886719L528.9598224696832,43.50883483886719Z"></path><text text-anchor="end" x="546.1998163479482" y="42.50883483886719" font-size="10">*</text></g><g><rect x="547.1998163479482" y="0" height="43.50883483886719" width="18.239993878264926" fill="rgb(241, 241, 255)"></rect><text font-size="10" x="548.1998163479482" y="10"></text><path fill="rgb(249, 248, 251)" d="M565.4398102262131,0L565.4398102262131,43.50883483886719L547.1998163479482,43.50883483886719Z"></path><text text-anchor="end" x="564.4398102262131" y="42.50883483886719" font-size="10"></text></g><g><rect x="565.4398102262131" y="0" height="43.50883483886719" width="18.239993878264926" fill="rgb(255, 249, 249)"></rect><text font-size="10" x="566.4398102262131" y="10"></text><path fill="rgb(227, 226, 239)" d="M583.6798041044781,0L583.6798041044781,43.50883483886719L565.4398102262131,43.50883483886719Z"></path><text text-anchor="end" x="582.6798041044781" y="42.50883483886719" font-size="10"></text></g><g><rect x="583.6798041044781" y="0" height="43.50883483886719" width="18.239993878264926" fill="rgb(255, 245, 245)"></rect><text font-size="10" x="584.6798041044781" y="10"></text><path fill="rgb(243, 242, 248)" d="M601.919797982743,0L601.919797982743,43.50883483886719L583.6798041044781,43.50883483886719Z"></path><text text-anchor="end" x="600.919797982743" y="42.50883483886719" font-size="10"></text></g><g><rect x="601.919797982743" y="0" height="43.50883483886719" width="18.239993878264926" fill="rgb(235, 235, 255)"></rect><text font-size="10" x="602.919797982743" y="10"></text><path fill="rgb(252, 251, 253)" d="M620.159791861008,0L620.159791861008,43.50883483886719L601.919797982743,43.50883483886719Z"></path><text text-anchor="end" x="619.159791861008" y="42.50883483886719" font-size="10">*</text></g><g><rect x="620.159791861008" y="0" height="43.50883483886719" width="18.239993878264926" fill="rgb(252, 252, 255)"></rect><text font-size="10" x="621.159791861008" y="10"></text><path fill="rgb(197, 198, 224)" d="M638.3997857392729,0L638.3997857392729,43.50883483886719L620.159791861008,43.50883483886719Z"></path><text text-anchor="end" x="637.3997857392729" y="42.50883483886719" font-size="10"></text></g><g><rect x="638.3997857392729" y="0" height="43.50883483886719" width="18.239993878264926" fill="rgb(253, 253, 255)"></rect><text font-size="10" x="639.3997857392729" y="10"></text><path fill="rgb(185, 185, 217)" d="M656.6397796175379,0L656.6397796175379,43.50883483886719L638.3997857392729,43.50883483886719Z"></path><text text-anchor="end" x="655.6397796175379" y="42.50883483886719" font-size="10"></text></g><g><rect x="656.6397796175379" y="0" height="43.50883483886719" width="18.239993878264926" fill="rgb(241, 241, 255)"></rect><text font-size="10" x="657.6397796175379" y="10"></text><path fill="rgb(249, 247, 251)" d="M674.8797734958029,0L674.8797734958029,43.50883483886719L656.6397796175379,43.50883483886719Z"></path><text text-anchor="end" x="673.8797734958029" y="42.50883483886719" font-size="10"></text></g><g><rect x="674.8797734958029" y="0" height="43.50883483886719" width="18.239993878264926" fill="rgb(255, 244, 244)"></rect><text font-size="10" x="675.8797734958029" y="10"></text><path fill="rgb(245, 243, 249)" d="M693.1197673740678,0L693.1197673740678,43.50883483886719L674.8797734958029,43.50883483886719Z"></path><text text-anchor="end" x="692.1197673740678" y="42.50883483886719" font-size="10"></text></g><g><rect x="693.1197673740678" y="0" height="43.50883483886719" width="18.239993878264926" fill="rgb(197, 197, 255)"></rect><text font-size="10" x="694.1197673740678" y="10"></text><path fill="rgb(252, 251, 253)" d="M711.3597612523328,0L711.3597612523328,43.50883483886719L693.1197673740678,43.50883483886719Z"></path><text text-anchor="end" x="710.3597612523328" y="42.50883483886719" font-size="10">*</text></g><g><rect x="711.3597612523328" y="0" height="43.50883483886719" width="18.239993878264926" fill="rgb(255, 167, 167)"></rect><text font-size="10" x="712.3597612523328" y="10"></text><path fill="rgb(252, 251, 253)" d="M729.5997551305977,0L729.5997551305977,43.50883483886719L711.3597612523328,43.50883483886719Z"></path><text text-anchor="end" x="728.5997551305977" y="42.50883483886719" font-size="10">*</text></g><g><rect x="729.5997551305977" y="0" height="43.50883483886719" width="18.239993878264926" fill="rgb(255, 250, 250)"></rect><text font-size="10" x="730.5997551305977" y="10"></text><path fill="rgb(219, 219, 235)" d="M747.8397490088627,0L747.8397490088627,43.50883483886719L729.5997551305977,43.50883483886719Z"></path><text text-anchor="end" x="746.8397490088627" y="42.50883483886719" font-size="10"></text></g><g><rect x="747.8397490088627" y="0" height="43.50883483886719" width="18.239993878264926" fill="rgb(255, 254, 254)"></rect><text font-size="10" x="748.8397490088627" y="10"></text><path fill="rgb(169, 167, 207)" d="M766.0797428871276,0L766.0797428871276,43.50883483886719L747.8397490088627,43.50883483886719Z"></path><text text-anchor="end" x="765.0797428871276" y="42.50883483886719" font-size="10"></text></g><g><rect x="766.0797428871276" y="0" height="43.50883483886719" width="18.239993878264926" fill="rgb(234, 234, 255)"></rect><text font-size="10" x="767.0797428871276" y="10"></text><path fill="rgb(252, 251, 253)" d="M784.3197367653926,0L784.3197367653926,43.50883483886719L766.0797428871276,43.50883483886719Z"></path><text text-anchor="end" x="783.3197367653926" y="42.50883483886719" font-size="10">*</text></g><g><rect x="784.3197367653926" y="0" height="43.50883483886719" width="18.239993878264926" fill="rgb(232, 232, 255)"></rect><text font-size="10" x="785.3197367653926" y="10"></text><path fill="rgb(252, 251, 253)" d="M802.5597306436575,0L802.5597306436575,43.50883483886719L784.3197367653926,43.50883483886719Z"></path><text text-anchor="end" x="801.5597306436575" y="42.50883483886719" font-size="10">*</text></g><g><rect x="802.5597306436575" y="0" height="43.50883483886719" width="18.239993878264926" fill="rgb(253, 253, 255)"></rect><text font-size="10" x="803.5597306436575" y="10"></text><path fill="rgb(182, 181, 215)" d="M820.7997245219225,0L820.7997245219225,43.50883483886719L802.5597306436575,43.50883483886719Z"></path><text text-anchor="end" x="819.7997245219225" y="42.50883483886719" font-size="10"></text></g><g><rect x="820.7997245219225" y="0" height="43.50883483886719" width="18.239993878264926" fill="rgb(255, 240, 240)"></rect><text font-size="10" x="821.7997245219225" y="10"></text><path fill="rgb(250, 249, 252)" d="M839.0397184001874,0L839.0397184001874,43.50883483886719L820.7997245219225,43.50883483886719Z"></path><text text-anchor="end" x="838.0397184001874" y="42.50883483886719" font-size="10">*</text></g><g><rect x="839.0397184001874" y="0" height="43.50883483886719" width="18.239993878264926" fill="rgb(255, 241, 241)"></rect><text font-size="10" x="840.0397184001874" y="10"></text><path fill="rgb(249, 248, 251)" d="M857.2797122784524,0L857.2797122784524,43.50883483886719L839.0397184001874,43.50883483886719Z"></path><text text-anchor="end" x="856.2797122784524" y="42.50883483886719" font-size="10"></text></g><g><rect x="857.2797122784524" y="0" height="43.50883483886719" width="18.239993878264926" fill="rgb(255, 239, 239)"></rect><text font-size="10" x="858.2797122784524" y="10"></text><path fill="rgb(251, 249, 252)" d="M875.5197061567173,0L875.5197061567173,43.50883483886719L857.2797122784524,43.50883483886719Z"></path><text text-anchor="end" x="874.5197061567173" y="42.50883483886719" font-size="10">*</text></g><g><rect x="875.5197061567173" y="0" height="43.50883483886719" width="18.239993878264926" fill="rgb(255, 248, 248)"></rect><text font-size="10" x="876.5197061567173" y="10"></text><path fill="rgb(231, 230, 241)" d="M893.7597000349823,0L893.7597000349823,43.50883483886719L875.5197061567173,43.50883483886719Z"></path><text text-anchor="end" x="892.7597000349823" y="42.50883483886719" font-size="10"></text></g><g><rect x="893.7597000349823" y="0" height="43.50883483886719" width="18.239993878264926" fill="rgb(246, 246, 255)"></rect><text font-size="10" x="894.7597000349823" y="10"></text><path fill="rgb(241, 239, 246)" d="M911.9996939132473,0L911.9996939132473,43.50883483886719L893.7597000349823,43.50883483886719Z"></path><text text-anchor="end" x="910.9996939132473" y="42.50883483886719" font-size="10"></text></g><g><rect x="911.9996939132473" y="0" height="43.50883483886719" width="18.239993878264926" fill="rgb(255, 227, 227)"></rect><text font-size="10" x="912.9996939132473" y="10"></text><path fill="rgb(252, 251, 253)" d="M930.2396877915122,0L930.2396877915122,43.50883483886719L911.9996939132473,43.50883483886719Z"></path><text text-anchor="end" x="929.2396877915122" y="42.50883483886719" font-size="10">*</text></g><g><rect x="930.2396877915122" y="0" height="43.50883483886719" width="18.239993878264926" fill="rgb(245, 245, 255)"></rect><text font-size="10" x="931.2396877915122" y="10"></text><path fill="rgb(243, 242, 248)" d="M948.4796816697772,0L948.4796816697772,43.50883483886719L930.2396877915122,43.50883483886719Z"></path><text text-anchor="end" x="947.4796816697772" y="42.50883483886719" font-size="10"></text></g><g><rect x="948.4796816697772" y="0" height="43.50883483886719" width="18.239993878264926" fill="rgb(250, 250, 255)"></rect><text font-size="10" x="949.4796816697772" y="10"></text><path fill="rgb(216, 216, 234)" d="M966.7196755480421,0L966.7196755480421,43.50883483886719L948.4796816697772,43.50883483886719Z"></path><text text-anchor="end" x="965.7196755480421" y="42.50883483886719" font-size="10"></text></g><g><rect x="966.7196755480421" y="0" height="43.50883483886719" width="18.239993878264926" fill="rgb(244, 244, 255)"></rect><text font-size="10" x="967.7196755480421" y="10"></text><path fill="rgb(244, 242, 248)" d="M984.9596694263071,0L984.9596694263071,43.50883483886719L966.7196755480421,43.50883483886719Z"></path><text text-anchor="end" x="983.9596694263071" y="42.50883483886719" font-size="10"></text></g><g><rect x="984.9596694263071" y="0" height="43.50883483886719" width="18.239993878264926" fill="rgb(255, 248, 248)"></rect><text font-size="10" x="985.9596694263071" y="10"></text><path fill="rgb(233, 232, 242)" d="M1003.199663304572,0L1003.199663304572,43.50883483886719L984.9596694263071,43.50883483886719Z"></path><text text-anchor="end" x="1002.199663304572" y="42.50883483886719" font-size="10"></text></g><g><rect x="1003.199663304572" y="0" height="43.50883483886719" width="18.239993878264926" fill="rgb(223, 223, 255)"></rect><text font-size="10" x="1004.199663304572" y="10"></text><path fill="rgb(252, 251, 253)" d="M1021.439657182837,0L1021.439657182837,43.50883483886719L1003.199663304572,43.50883483886719Z"></path><text text-anchor="end" x="1020.439657182837" y="42.50883483886719" font-size="10">*</text></g><g><rect x="1021.439657182837" y="0" height="43.50883483886719" width="18.239993878264926" fill="rgb(242, 242, 255)"></rect><text font-size="10" x="1022.439657182837" y="10"></text><path fill="rgb(248, 246, 250)" d="M1039.6796510611018,0L1039.6796510611018,43.50883483886719L1021.439657182837,43.50883483886719Z"></path><text text-anchor="end" x="1038.6796510611018" y="42.50883483886719" font-size="10"></text></g><g><rect x="1039.6796510611018" y="0" height="43.50883483886719" width="18.239993878264926" fill="rgb(255, 215, 215)"></rect><text font-size="10" x="1040.6796510611018" y="10"></text><path fill="rgb(252, 251, 253)" d="M1057.9196449393667,0L1057.9196449393667,43.50883483886719L1039.6796510611018,43.50883483886719Z"></path><text text-anchor="end" x="1056.9196449393667" y="42.50883483886719" font-size="10">*</text></g><g><rect x="1057.9196449393667" y="0" height="43.50883483886719" width="18.239993878264926" fill="rgb(241, 241, 255)"></rect><text font-size="10" x="1058.9196449393667" y="10"></text><path fill="rgb(249, 248, 251)" d="M1076.1596388176315,0L1076.1596388176315,43.50883483886719L1057.9196449393667,43.50883483886719Z"></path><text text-anchor="end" x="1075.1596388176315" y="42.50883483886719" font-size="10"></text></g><g><rect x="1076.1596388176315" y="0" height="43.50883483886719" width="18.239993878264926" fill="rgb(255, 195, 195)"></rect><text font-size="10" x="1077.1596388176315" y="10"></text><path fill="rgb(252, 251, 253)" d="M1094.3996326958963,0L1094.3996326958963,43.50883483886719L1076.1596388176315,43.50883483886719Z"></path><text text-anchor="end" x="1093.3996326958963" y="42.50883483886719" font-size="10">*</text></g><g><rect x="1094.3996326958963" y="0" height="43.50883483886719" width="18.239993878264926" fill="rgb(255, 235, 235)"></rect><text font-size="10" x="1095.3996326958963" y="10"></text><path fill="rgb(252, 251, 253)" d="M1112.6396265741612,0L1112.6396265741612,43.50883483886719L1094.3996326958963,43.50883483886719Z"></path><text text-anchor="end" x="1111.6396265741612" y="42.50883483886719" font-size="10">*</text></g><g><rect x="1112.6396265741612" y="0" height="43.50883483886719" width="18.239993878264926" fill="rgb(209, 209, 255)"></rect><text font-size="10" x="1113.6396265741612" y="10"></text><path fill="rgb(252, 251, 253)" d="M1130.879620452426,0L1130.879620452426,43.50883483886719L1112.6396265741612,43.50883483886719Z"></path><text text-anchor="end" x="1129.879620452426" y="42.50883483886719" font-size="10">*</text></g><g><rect x="1130.879620452426" y="0" height="43.50883483886719" width="18.239993878264926" fill="rgb(255, 223, 223)"></rect><text font-size="10" x="1131.879620452426" y="10"></text><path fill="rgb(252, 251, 253)" d="M1149.1196143306909,0L1149.1196143306909,43.50883483886719L1130.879620452426,43.50883483886719Z"></path><text text-anchor="end" x="1148.1196143306909" y="42.50883483886719" font-size="10">*</text></g><g><rect x="1149.1196143306909" y="0" height="43.50883483886719" width="18.239993878264926" fill="rgb(253, 253, 255)"></rect><text font-size="10" x="1150.1196143306909" y="10"></text><path fill="rgb(187, 187, 219)" d="M1167.3596082089557,0L1167.3596082089557,43.50883483886719L1149.1196143306909,43.50883483886719Z"></path><text text-anchor="end" x="1166.3596082089557" y="42.50883483886719" font-size="10"></text></g><g><rect x="1167.3596082089557" y="0" height="43.50883483886719" width="18.239993878264926" fill="rgb(255, 244, 244)"></rect><text font-size="10" x="1168.3596082089557" y="10"></text><path fill="rgb(244, 243, 248)" d="M1185.5996020872205,0L1185.5996020872205,43.50883483886719L1167.3596082089557,43.50883483886719Z"></path><text text-anchor="end" x="1184.5996020872205" y="42.50883483886719" font-size="10"></text></g><g><rect x="1185.5996020872205" y="0" height="43.50883483886719" width="18.239993878264926" fill="rgb(251, 251, 255)"></rect><text font-size="10" x="1186.5996020872205" y="10"></text><path fill="rgb(203, 203, 227)" d="M1203.8395959654854,0L1203.8395959654854,43.50883483886719L1185.5996020872205,43.50883483886719Z"></path><text text-anchor="end" x="1202.8395959654854" y="42.50883483886719" font-size="10"></text></g><g><rect x="1203.8395959654854" y="0" height="43.50883483886719" width="18.239993878264926" fill="rgb(255, 248, 248)"></rect><text font-size="10" x="1204.8395959654854" y="10"></text><path fill="rgb(230, 229, 241)" d="M1222.0795898437502,0L1222.0795898437502,43.50883483886719L1203.8395959654854,43.50883483886719Z"></path><text text-anchor="end" x="1221.0795898437502" y="42.50883483886719" font-size="10"></text></g></g></g></g><g transform="translate(0,48.50883483886719)"><text text-anchor="end" transform="translate(9.119996939132463,0),rotate(-45 10 0)" style="font-size: 12px;">aDC</text><text text-anchor="end" transform="translate(27.35999081739739,0),rotate(-45 10 0)" style="font-size: 12px;">Adipocytes</text><text text-anchor="end" transform="translate(45.599984695662314,0),rotate(-45 10 0)" style="font-size: 12px;">Astrocytes</text><text text-anchor="end" transform="translate(63.83997857392724,0),rotate(-45 10 0)" style="font-size: 12px;">B-cells</text><text text-anchor="end" transform="translate(82.07997245219217,0),rotate(-45 10 0)" style="font-size: 12px;">Basophils</text><text text-anchor="end" transform="translate(100.31996633045709,0),rotate(-45 10 0)" style="font-size: 12px;">CD4+_memory_T-cells</text><text text-anchor="end" transform="translate(118.55996020872202,0),rotate(-45 10 0)" style="font-size: 12px;">CD4+_naive_T-cells</text><text text-anchor="end" transform="translate(136.79995408698693,0),rotate(-45 10 0)" style="font-size: 12px;">CD4+_T-cells</text><text text-anchor="end" transform="translate(155.03994796525188,0),rotate(-45 10 0)" style="font-size: 12px;">CD4+_Tcm</text><text text-anchor="end" transform="translate(173.27994184351678,0),rotate(-45 10 0)" style="font-size: 12px;">CD4+_Tem</text><text text-anchor="end" transform="translate(191.51993572178174,0),rotate(-45 10 0)" style="font-size: 12px;">CD8+_naive_T-cells</text><text text-anchor="end" transform="translate(209.75992960004663,0),rotate(-45 10 0)" style="font-size: 12px;">CD8+_T-cells</text><text text-anchor="end" transform="translate(227.9999234783116,0),rotate(-45 10 0)" style="font-size: 12px;">CD8+_Tcm</text><text text-anchor="end" transform="translate(246.23991735657648,0),rotate(-45 10 0)" style="font-size: 12px;">CD8+_Tem</text><text text-anchor="end" transform="translate(264.47991123484144,0),rotate(-45 10 0)" style="font-size: 12px;">cDC</text><text text-anchor="end" transform="translate(282.71990511310634,0),rotate(-45 10 0)" style="font-size: 12px;">Chondrocytes</text><text text-anchor="end" transform="translate(300.9598989913713,0),rotate(-45 10 0)" style="font-size: 12px;">Class-switched_memory_B-cells</text><text text-anchor="end" transform="translate(319.1998928696362,0),rotate(-45 10 0)" style="font-size: 12px;">CLP</text><text text-anchor="end" transform="translate(337.43988674790114,0),rotate(-45 10 0)" style="font-size: 12px;">CMP</text><text text-anchor="end" transform="translate(355.67988062616604,0),rotate(-45 10 0)" style="font-size: 12px;">DC</text><text text-anchor="end" transform="translate(373.919874504431,0),rotate(-45 10 0)" style="font-size: 12px;">Endothelial_cells</text><text text-anchor="end" transform="translate(392.1598683826959,0),rotate(-45 10 0)" style="font-size: 12px;">Eosinophils</text><text text-anchor="end" transform="translate(410.39986226096084,0),rotate(-45 10 0)" style="font-size: 12px;">Epithelial_cells</text><text text-anchor="end" transform="translate(428.63985613922574,0),rotate(-45 10 0)" style="font-size: 12px;">Erythrocytes</text><text text-anchor="end" transform="translate(446.8798500174907,0),rotate(-45 10 0)" style="font-size: 12px;">Fibroblasts</text><text text-anchor="end" transform="translate(465.1198438957556,0),rotate(-45 10 0)" style="font-size: 12px;">GMP</text><text text-anchor="end" transform="translate(483.35983777402055,0),rotate(-45 10 0)" style="font-size: 12px;">Hepatocytes</text><text text-anchor="end" transform="translate(501.59983165228545,0),rotate(-45 10 0)" style="font-size: 12px;">HSC</text><text text-anchor="end" transform="translate(519.8398255305503,0),rotate(-45 10 0)" style="font-size: 12px;">iDC</text><text text-anchor="end" transform="translate(538.0798194088153,0),rotate(-45 10 0)" style="font-size: 12px;">Keratinocytes</text><text text-anchor="end" transform="translate(556.3198132870803,0),rotate(-45 10 0)" style="font-size: 12px;">ly_Endothelial_cells</text><text text-anchor="end" transform="translate(574.5598071653452,0),rotate(-45 10 0)" style="font-size: 12px;">Macrophages</text><text text-anchor="end" transform="translate(592.79980104361,0),rotate(-45 10 0)" style="font-size: 12px;">Macrophages_M1</text><text text-anchor="end" transform="translate(611.039794921875,0),rotate(-45 10 0)" style="font-size: 12px;">Macrophages_M2</text><text text-anchor="end" transform="translate(629.27978880014,0),rotate(-45 10 0)" style="font-size: 12px;">Mast_cells</text><text text-anchor="end" transform="translate(647.5197826784049,0),rotate(-45 10 0)" style="font-size: 12px;">Megakaryocytes</text><text text-anchor="end" transform="translate(665.7597765566697,0),rotate(-45 10 0)" style="font-size: 12px;">Melanocytes</text><text text-anchor="end" transform="translate(683.9997704349347,0),rotate(-45 10 0)" style="font-size: 12px;">Memory_B-cells</text><text text-anchor="end" transform="translate(702.2397643131997,0),rotate(-45 10 0)" style="font-size: 12px;">MEP</text><text text-anchor="end" transform="translate(720.4797581914646,0),rotate(-45 10 0)" style="font-size: 12px;">Mesangial_cells</text><text text-anchor="end" transform="translate(738.7197520697295,0),rotate(-45 10 0)" style="font-size: 12px;">Monocytes</text><text text-anchor="end" transform="translate(756.9597459479944,0),rotate(-45 10 0)" style="font-size: 12px;">MPP</text><text text-anchor="end" transform="translate(775.1997398262594,0),rotate(-45 10 0)" style="font-size: 12px;">MSC</text><text text-anchor="end" transform="translate(793.4397337045243,0),rotate(-45 10 0)" style="font-size: 12px;">mv_Endothelial_cells</text><text text-anchor="end" transform="translate(811.6797275827892,0),rotate(-45 10 0)" style="font-size: 12px;">Myocytes</text><text text-anchor="end" transform="translate(829.9197214610541,0),rotate(-45 10 0)" style="font-size: 12px;">naive_B-cells</text><text text-anchor="end" transform="translate(848.1597153393191,0),rotate(-45 10 0)" style="font-size: 12px;">Neurons</text><text text-anchor="end" transform="translate(866.399709217584,0),rotate(-45 10 0)" style="font-size: 12px;">Neutrophils</text><text text-anchor="end" transform="translate(884.6397030958489,0),rotate(-45 10 0)" style="font-size: 12px;">NK_cells</text><text text-anchor="end" transform="translate(902.8796969741138,0),rotate(-45 10 0)" style="font-size: 12px;">NKT</text><text text-anchor="end" transform="translate(921.1196908523788,0),rotate(-45 10 0)" style="font-size: 12px;">Osteoblast</text><text text-anchor="end" transform="translate(939.3596847306437,0),rotate(-45 10 0)" style="font-size: 12px;">pDC</text><text text-anchor="end" transform="translate(957.5996786089086,0),rotate(-45 10 0)" style="font-size: 12px;">Pericytes</text><text text-anchor="end" transform="translate(975.8396724871735,0),rotate(-45 10 0)" style="font-size: 12px;">Plasma_cells</text><text text-anchor="end" transform="translate(994.0796663654385,0),rotate(-45 10 0)" style="font-size: 12px;">Platelets</text><text text-anchor="end" transform="translate(1012.3196602437034,0),rotate(-45 10 0)" style="font-size: 12px;">Preadipocytes</text><text text-anchor="end" transform="translate(1030.5596541219684,0),rotate(-45 10 0)" style="font-size: 12px;">pro_B-cells</text><text text-anchor="end" transform="translate(1048.7996480002332,0),rotate(-45 10 0)" style="font-size: 12px;">Sebocytes</text><text text-anchor="end" transform="translate(1067.039641878498,0),rotate(-45 10 0)" style="font-size: 12px;">Skeletal_muscle</text><text text-anchor="end" transform="translate(1085.2796357567631,0),rotate(-45 10 0)" style="font-size: 12px;">Smooth_muscle</text><text text-anchor="end" transform="translate(1103.519629635028,0),rotate(-45 10 0)" style="font-size: 12px;">Tgd_cells</text><text text-anchor="end" transform="translate(1121.759623513293,0),rotate(-45 10 0)" style="font-size: 12px;">Th1_cells</text><text text-anchor="end" transform="translate(1139.9996173915579,0),rotate(-45 10 0)" style="font-size: 12px;">Th2_cells</text><text text-anchor="end" transform="translate(1158.2396112698227,0),rotate(-45 10 0)" style="font-size: 12px;">Tregs</text><text text-anchor="end" transform="translate(1176.4796051480878,0),rotate(-45 10 0)" style="font-size: 12px;">ImmuneScore</text><text text-anchor="end" transform="translate(1194.7195990263526,0),rotate(-45 10 0)" style="font-size: 12px;">StromaScore</text><text text-anchor="end" transform="translate(1212.9595929046175,0),rotate(-45 10 0)" style="font-size: 12px;">MicroenvironmentScore</text></g><g transform="translate(1227.07958984375,0)"><text transform="translate(0,27.754417419433594)" style="font-size: 12px;">TCGA-LIHC(N=363)</text></g></g><g class="#plotHeatViewlegendg" transform="translate(1380,46.47999954223633)"><g class="plotHeatViewheat1lg"><rect width="0" height="0" fill="none" stroke-width="0" stroke="currentColor" stroke-opacity="0.3" stroke-dasharray="2,3" class="plotHeatViewheat1lgBackgroundRect"></rect><text y="12" font-size="12">correlation coefficient</text><g fill="none" font-size="10" font-family="sans-serif" text-anchor="middle" transform="translate(0,35)"><path class="domain" stroke="currentColor" d="M0,6V0H100V6"></path><g class="tick" opacity="1" transform="translate(20.652571319366373,0)"><line stroke="currentColor" y2="6"></line><text fill="currentColor" y="9" dy="0.71em">−0.5</text></g><g class="tick" opacity="1" transform="translate(50,0)"><line stroke="currentColor" y2="6"></line><text fill="currentColor" y="9" dy="0.71em">0.0</text></g><g class="tick" opacity="1" transform="translate(79.34742868063363,0)"><line stroke="currentColor" y2="6"></line><text fill="currentColor" y="9" dy="0.71em">0.5</text></g></g><rect x="0" y="15" fill="rgb(0, 0, 255)" height="20" width="5"></rect><rect x="5" y="15" fill="rgb(90, 90, 255)" height="20" width="5"></rect><rect x="10" y="15" fill="rgb(123, 123, 255)" height="20" width="5"></rect><rect x="15.000000000000005" y="15" fill="rgb(148, 148, 255)" height="20" width="5"></rect><rect x="20.000000000000004" y="15" fill="rgb(168, 168, 255)" height="20" width="5"></rect><rect x="25" y="15" fill="rgb(186, 186, 255)" height="20" width="5"></rect><rect x="30.000000000000004" y="15" fill="rgb(202, 202, 255)" height="20" width="5"></rect><rect x="35" y="15" fill="rgb(217, 217, 255)" height="20" width="5"></rect><rect x="40" y="15" fill="rgb(230, 230, 255)" height="20" width="5"></rect><rect x="45" y="15" fill="rgb(243, 243, 255)" height="20" width="5"></rect><rect x="50" y="15" fill="rgb(255, 255, 255)" height="20" width="5"></rect><rect x="55.00000000000001" y="15" fill="rgb(255, 243, 243)" height="20" width="5"></rect><rect x="60.00000000000001" y="15" fill="rgb(255, 230, 230)" height="20" width="5"></rect><rect x="65" y="15" fill="rgb(255, 217, 217)" height="20" width="5"></rect><rect x="70" y="15" fill="rgb(255, 202, 202)" height="20" width="5"></rect><rect x="75" y="15" fill="rgb(255, 186, 186)" height="20" width="5"></rect><rect x="80" y="15" fill="rgb(255, 168, 168)" height="20" width="5"></rect><rect x="85" y="15" fill="rgb(255, 148, 148)" height="20" width="5"></rect><rect x="90" y="15" fill="rgb(255, 123, 123)" height="20" width="5"></rect><rect x="95" y="15" fill="rgb(255, 90, 90)" height="20" width="5"></rect></g><g class="plotHeatViewheat2lg" transform="translate(0,53.52000045776367)"><rect width="0" height="0" fill="none" stroke-width="0" stroke="currentColor" stroke-opacity="0.3" stroke-dasharray="2,3" class="plotHeatViewheat2lgBackgroundRect"></rect><text y="12" font-size="12">pValue</text><g fill="none" font-size="10" font-family="sans-serif" text-anchor="middle" transform="translate(0,35)"><path class="domain" stroke="currentColor" d="M0,6V0H100V6"></path><g class="tick" opacity="1" transform="translate(0,0)"><line stroke="currentColor" y2="6"></line><text fill="currentColor" y="9" dy="0.71em">0.0</text></g><g class="tick" opacity="1" transform="translate(25,0)"><line stroke="currentColor" y2="6"></line><text fill="currentColor" y="9" dy="0.71em">0.5</text></g><g class="tick" opacity="1" transform="translate(50,0)"><line stroke="currentColor" y2="6"></line><text fill="currentColor" y="9" dy="0.71em">1.0</text></g><g class="tick" opacity="1" transform="translate(75,0)"><line stroke="currentColor" y2="6"></line><text fill="currentColor" y="9" dy="0.71em">1.5</text></g><g class="tick" opacity="1" transform="translate(100,0)"><line stroke="currentColor" y2="6"></line><text fill="currentColor" y="9" dy="0.71em">2.0</text></g></g><rect x="0" y="15" fill="rgb(252, 251, 253)" height="20" width="5"></rect><rect x="5" y="15" fill="rgb(247, 245, 250)" height="20" width="5"></rect><rect x="10" y="15" fill="rgb(241, 239, 246)" height="20" width="5"></rect><rect x="15.000000000000002" y="15" fill="rgb(234, 233, 243)" height="20" width="5"></rect><rect x="20" y="15" fill="rgb(226, 225, 239)" height="20" width="5"></rect><rect x="25" y="15" fill="rgb(217, 216, 234)" height="20" width="5"></rect><rect x="30.000000000000004" y="15" fill="rgb(206, 206, 229)" height="20" width="5"></rect><rect x="35" y="15" fill="rgb(194, 194, 223)" height="20" width="5"></rect><rect x="40" y="15" fill="rgb(182, 181, 216)" height="20" width="5"></rect><rect x="45" y="15" fill="rgb(170, 168, 208)" height="20" width="5"></rect><rect x="50" y="15" fill="rgb(158, 155, 201)" height="20" width="5"></rect><rect x="55.00000000000001" y="15" fill="rgb(146, 142, 195)" height="20" width="5"></rect><rect x="60.00000000000001" y="15" fill="rgb(135, 130, 188)" height="20" width="5"></rect><rect x="65" y="15" fill="rgb(124, 115, 181)" height="20" width="5"></rect><rect x="70" y="15" fill="rgb(115, 99, 172)" height="20" width="5"></rect><rect x="75" y="15" fill="rgb(106, 81, 164)" height="20" width="5"></rect><rect x="80" y="15" fill="rgb(97, 64, 155)" height="20" width="5"></rect><rect x="85.00000000000001" y="15" fill="rgb(88, 48, 147)" height="20" width="5"></rect><rect x="90" y="15" fill="rgb(80, 31, 140)" height="20" width="5"></rect><rect x="95" y="15" fill="rgb(71, 16, 132)" height="20" width="5"></rect></g></g></svg>